REM DIRINDEX 1
REM DIRNAME folder01
TITLE ""
FILE "20_dokkai_1_q61_65.mp3" MP3
  TRACK 01 AUDIO
    TITLE "0:"
    INDEX 01 00:00:00
  TRACK 02 AUDIO
    TITLE "1:cjc118_0908"
    INDEX 01 00:00:13
  TRACK 03 AUDIO
    TITLE "1:cjc118_0909"
    INDEX 01 00:06:18
  TRACK 04 AUDIO
    TITLE "1:cjc118_0910"
    INDEX 01 00:11:62
  TRACK 05 AUDIO
    TITLE "1:cjc118_0911"
    INDEX 01 00:13:39
  TRACK 06 AUDIO
    TITLE "1:cjc118_0912"
    INDEX 01 00:16:08
  TRACK 07 AUDIO
    TITLE "1:cjc118_0913"
    INDEX 01 00:24:72
  TRACK 08 AUDIO
    TITLE "1:cjc118_0914"
    INDEX 01 00:26:62
  TRACK 09 AUDIO
    TITLE "1:cjc118_0915"
    INDEX 01 00:29:44
  TRACK 10 AUDIO
    TITLE "1:cjc118_0916"
    INDEX 01 00:37:44
  TRACK 11 AUDIO
    TITLE "1:cjc118_0917"
    INDEX 01 00:39:25
  TRACK 12 AUDIO
    TITLE "1:cjc118_0918"
    INDEX 01 00:42:00
  TRACK 13 AUDIO
    TITLE "1:cjc118_0919"
    INDEX 01 00:48:63
  TRACK 14 AUDIO
    TITLE "1:cjc118_0920"
    INDEX 01 00:50:39
  TRACK 15 AUDIO
    TITLE "1:cjc118_0921"
    INDEX 01 00:53:49
  TRACK 16 AUDIO
    TITLE "1:cjc118_0922"
    INDEX 01 01:02:01
  TRACK 17 AUDIO
    TITLE "1:cjc118_0923"
    INDEX 01 01:03:41
  TRACK 18 AUDIO
    TITLE "1:cjc118_0924"
    INDEX 01 01:05:64
  TRACK 19 AUDIO
    TITLE "1:cjc118_0925"
    INDEX 01 01:13:73
  TRACK 20 AUDIO
    TITLE "1:cjc118_0926"
    INDEX 01 01:15:66
  TRACK 21 AUDIO
    TITLE "1:cjc118_0927"
    INDEX 01 01:18:23
  TRACK 22 AUDIO
    TITLE "1:cjc118_0928"
    INDEX 01 01:25:04
  TRACK 23 AUDIO
    TITLE "1:cjc118_0929"
    INDEX 01 01:26:30
  TRACK 24 AUDIO
    TITLE "1:cjc118_0930"
    INDEX 01 01:29:31
  TRACK 25 AUDIO
    TITLE "1:cjc118_0931"
    INDEX 01 01:37:38
  TRACK 26 AUDIO
    TITLE "1:cjc118_0932"
    INDEX 01 01:39:10
  TRACK 27 AUDIO
    TITLE "1:cjc118_0933"
    INDEX 01 01:41:38
  TRACK 28 AUDIO
    TITLE "1:cjc118_0934"
    INDEX 01 01:50:27
  TRACK 29 AUDIO
    TITLE "1:cjc118_0935"
    INDEX 01 02:04:51
  TRACK 30 AUDIO
    TITLE "1:cjc118_0936"
    INDEX 01 02:09:73
  TRACK 31 AUDIO
    TITLE "1:cjc118_0937"
    INDEX 01 02:16:36
  TRACK 32 AUDIO
    TITLE "1:cjc118_0938"
    INDEX 01 02:21:53
  TRACK 33 AUDIO
    TITLE "1:cjc118_0939"
    INDEX 01 02:23:27
  TRACK 34 AUDIO
    TITLE "1:cjc118_0940"
    INDEX 01 02:24:67
  TRACK 35 AUDIO
    TITLE "1:cjc118_0941"
    INDEX 01 02:29:13
  TRACK 36 AUDIO
    TITLE "1:cjc118_0942"
    INDEX 01 02:37:48
  TRACK 37 AUDIO
    TITLE "1:cjc118_0943"
    INDEX 01 02:53:61
  TRACK 38 AUDIO
    TITLE "1:cjc118_0944"
    INDEX 01 03:06:07
  TRACK 39 AUDIO
    TITLE "1:cjc118_0945"
    INDEX 01 03:19:17
  TRACK 40 AUDIO
    TITLE "1:cjc118_0946"
    INDEX 01 03:25:51
  TRACK 41 AUDIO
    TITLE "1:cjc118_0947"
    INDEX 01 03:35:22
  TRACK 42 AUDIO
    TITLE "1:cjc118_0948"
    INDEX 01 03:38:58
  TRACK 43 AUDIO
    TITLE "1:cjc118_0949"
    INDEX 01 03:49:61
  TRACK 44 AUDIO
    TITLE "1:cjc118_0950"
    INDEX 01 04:00:57
  TRACK 45 AUDIO
    TITLE "1:cjc118_0951"
    INDEX 01 04:08:33
  TRACK 46 AUDIO
    TITLE "1:cjc118_0952"
    INDEX 01 04:14:16
  TRACK 47 AUDIO
    TITLE "1:cjc118_0953"
    INDEX 01 04:15:69
  TRACK 48 AUDIO
    TITLE "1:cjc118_0954"
    INDEX 01 04:17:48
  TRACK 49 AUDIO
    TITLE "1:cjc118_0955"
    INDEX 01 04:21:24
  TRACK 50 AUDIO
    TITLE "1:cjc118_0956"
    INDEX 01 04:22:29
  TRACK 51 AUDIO
    TITLE "1:cjc118_0957"
    INDEX 01 04:23:64
  TRACK 52 AUDIO
    TITLE "1:cjc118_0958"
    INDEX 01 04:24:73
  TRACK 53 AUDIO
    TITLE "1:cjc118_0959"
    INDEX 01 04:26:25
  TRACK 54 AUDIO
    TITLE "1:cjc118_0960"
    INDEX 01 04:27:37
  TRACK 55 AUDIO
    TITLE "1:cjc118_0961"
    INDEX 01 04:28:73
  TRACK 56 AUDIO
    TITLE "1:cjc118_0962"
    INDEX 01 04:30:04
  TRACK 57 AUDIO
    TITLE "1:cjc118_0963"
    INDEX 01 04:31:13
  TRACK 58 AUDIO
    TITLE "1:cjc118_0964"
    INDEX 01 04:32:57
  TRACK 59 AUDIO
    TITLE "1:cjc118_0965"
    INDEX 01 04:34:37
  TRACK 60 AUDIO
    TITLE "1:cjc118_0966"
    INDEX 01 04:39:03
  TRACK 61 AUDIO
    TITLE "1:cjc118_0967"
    INDEX 01 04:40:02
  TRACK 62 AUDIO
    TITLE "1:cjc118_0968"
    INDEX 01 04:42:07
  TRACK 63 AUDIO
    TITLE "1:cjc118_0969"
    INDEX 01 04:43:08
  TRACK 64 AUDIO
    TITLE "1:cjc118_0970"
    INDEX 01 04:45:15
  TRACK 65 AUDIO
    TITLE "1:cjc118_0971"
    INDEX 01 04:46:16
  TRACK 66 AUDIO
    TITLE "1:cjc118_0972"
    INDEX 01 04:48:00
  TRACK 67 AUDIO
    TITLE "1:cjc118_0973"
    INDEX 01 04:48:74
  TRACK 68 AUDIO
    TITLE "1:cjc118_0974"
    INDEX 01 04:50:67
  TRACK 69 AUDIO
    TITLE "1:cjc118_0975"
    INDEX 01 04:52:40
  TRACK 70 AUDIO
    TITLE "1:cjc118_0976"
    INDEX 01 04:54:29
  TRACK 71 AUDIO
    TITLE "1:cjc118_0977"
    INDEX 01 05:02:23
  TRACK 72 AUDIO
    TITLE "1:cjc118_0978"
    INDEX 01 05:03:25
  TRACK 73 AUDIO
    TITLE "1:cjc118_0979"
    INDEX 01 05:04:67
  TRACK 74 AUDIO
    TITLE "1:cjc118_0980"
    INDEX 01 05:05:70
  TRACK 75 AUDIO
    TITLE "1:cjc118_0981"
    INDEX 01 05:07:30
  TRACK 76 AUDIO
    TITLE "1:cjc118_0982"
    INDEX 01 05:08:32
  TRACK 77 AUDIO
    TITLE "1:cjc118_0983"
    INDEX 01 05:09:64
  TRACK 78 AUDIO
    TITLE "1:cjc118_0984"
    INDEX 01 05:10:68
  TRACK 79 AUDIO
    TITLE "1:cjc118_0985"
    INDEX 01 05:12:24
  TRACK 80 AUDIO
    TITLE "1:cjc118_0986"
    INDEX 01 05:13:70
  TRACK 81 AUDIO
    TITLE "1:cjc118_0987"
    INDEX 01 05:15:47
  TRACK 82 AUDIO
    TITLE "1:cjc118_0988"
    INDEX 01 05:19:22
  TRACK 83 AUDIO
    TITLE "1:cjc118_0989"
    INDEX 01 05:20:29
  TRACK 84 AUDIO
    TITLE "1:cjc118_0990"
    INDEX 01 05:21:60
  TRACK 85 AUDIO
    TITLE "1:cjc118_0991"
    INDEX 01 05:22:69
  TRACK 86 AUDIO
    TITLE "1:cjc118_0992"
    INDEX 01 05:24:27
  TRACK 87 AUDIO
    TITLE "1:cjc118_0993"
    INDEX 01 05:25:28
  TRACK 88 AUDIO
    TITLE "1:cjc118_0994"
    INDEX 01 05:26:69
  TRACK 89 AUDIO
    TITLE "1:cjc118_0995"
    INDEX 01 05:28:01
  TRACK 90 AUDIO
    TITLE "1:cjc118_0996"
    INDEX 01 05:29:16
  TRACK 91 AUDIO
    TITLE "1:cjc118_0997"
    INDEX 01 05:30:66
  TRACK 92 AUDIO
    TITLE "1:cjc118_0998"
    INDEX 01 05:32:58
  TRACK 93 AUDIO
    TITLE "1:cjc118_0999"
    INDEX 01 05:37:21
  TRACK 94 AUDIO
    TITLE "1:cjc118_1000"
    INDEX 01 05:38:23
  TRACK 95 AUDIO
    TITLE "1:cjc118_1001"
    INDEX 01 05:39:63
  TRACK 96 AUDIO
    TITLE "1:cjc118_1002"
    INDEX 01 05:40:61
  TRACK 97 AUDIO
    TITLE "1:cjc118_1003"
    INDEX 01 05:42:32
  TRACK 98 AUDIO
    TITLE "1:cjc118_1004"
    INDEX 01 05:43:42
  TRACK 99 AUDIO
    TITLE "1:cjc118_1005"
    INDEX 01 05:45:23
  TRACK 100 AUDIO
    TITLE "1:cjc118_1006"
    INDEX 01 05:46:24
  TRACK 101 AUDIO
    TITLE "0:"
    INDEX 01 05:47:65
